<?xml version="1.0" encoding="utf-8"?>
<!-- Generator: Adobe Illustrator 19.0.0, SVG Export Plug-In . SVG Version: 6.00 Build 0)  -->
<svg version="1.1" id="Layer_1" xmlns="http://www.w3.org/2000/svg" xmlns:xlink="http://www.w3.org/1999/xlink" x="0px" y="0px"
	 viewBox="0 0 422.8 488.3" style="enable-background:new 0 0 422.8 488.3;" xml:space="preserve">
<style type="text/css">
	.st0{fill:#FFFFFF;}
	.st1{fill:#808285;}
	.st2{fill:#3C2415;}
	.st3{fill:#603913;}
	.st4{fill:#A7A9AC;}
	.st5{fill:#BCBEC0;}
	.st6{fill:#E6E7E8;}
	.st7{fill:#8B5E3C;}
	.st8{fill:#754C29;}
</style>
<ellipse id="XMLID_235_" transform="matrix(1 -4.940339e-004 4.940339e-004 1 -0.2148 0.1051)" class="st0" cx="212.6" cy="434.8" rx="210.3" ry="50.3"/>
<path id="XMLID_12_" class="st1" d="M348.4,396.2c-10.7-2.2-24.6-4.5-39.7-6.9l-71.2-4.5l-96.4,9.7c0,0-7.1,50.1,24.5,63.7
	c4.3,1.8,14.4,1.9,20.3,2.3C244.1,463.5,317.5,425.1,348.4,396.2z"/>
<g id="XMLID_4_">
	<g id="XMLID_54_">
		<path id="XMLID_65_" class="st0" d="M325.3,389.2c-3.1-14.1,17.8-22.5,27.6-27.3c14.1-6.9,28.2-14.8,39-26.5
			c11.4-12.3,22.2-31.4,14.2-48.2c-8.9-18.7-31.1-18.9-48.6-16.1c-14.1,2.3-47.2,9.7-43.6,29.9c0.4,2.4,3,3.8,5.2,3.9
			c6.9,0.3,12.6-4.6,18.6-7.1c6.6-2.7,13.9-3.8,21-4.6c7.9-0.9,30.8-4.2,26.7,9.8c-3.4,11.7-13.4,21-23.1,27.6
			c-11.8,8.1-25.5,12.9-37.3,21.1c-13.7,9.6-29.8,30.5-14.2,45.9C317,404.2,327.1,397.6,325.3,389.2L325.3,389.2z"/>
	</g>
</g>
<g id="XMLID_3_">
	<path id="XMLID_52_" class="st2" d="M326.5,286.3c0.4,8.3,0.7,12.9-2.5,19.3"/>
	<g id="XMLID_45_">
		<path id="XMLID_51_" class="st3" d="M326.2,286.2c-1.4,5.7-1.1,11.7-3.5,17.2c-0.4,1-0.3,1.8,0.3,2.6c0.5,0.6,0.8,0.6,1.5,0.6
			c0.7,0,1.6-0.4,1.8-1.1c2.8-6.4,2.8-12.9,0.5-19.4C326.7,285.9,326.2,285.9,326.2,286.2L326.2,286.2z"/>
	</g>
</g>
<path id="XMLID_20_" class="st0" d="M325.6,278c3.7,5.1,5.7,103.5-39.3,144.6c-35.1,32.1-98,37.8-129.4,29.7
	c-26.1-6.7-50.8-26.9-60.6-42C70.6,370.6,59.1,326.9,57.9,309L325.6,278z"/>
<ellipse id="XMLID_19_" transform="matrix(0.9934 -0.1149 0.1149 0.9934 -32.4569 23.9787)" class="st4" cx="191.7" cy="293.5" rx="134.8" ry="23"/>
<path id="XMLID_6_" class="st2" d="M320.4,355.1c0.2,0-0.3,0.1-0.5,0.2c-8.8,3.8-26.3,16.4-18.6,27.3c0.1,0.2,1.3,2,1.7,1.9
	c0.4-0.1-0.4-1.8-0.7-2.1C295.2,374.8,318.2,355.5,320.4,355.1z"/>
<path id="XMLID_26_" class="st5" d="M71.8,349c-1.5-3.6-3.6-7-5.4-10.4c-0.1-0.3-0.6-0.1-0.5,0.2c1.5,3.6,3.1,7.3,5.4,10.4
	C71.5,349.3,71.9,349.2,71.8,349z"/>
<path id="XMLID_27_" class="st5" d="M320.3,393.4c-1.8,0.2-2.8,1.5-4.8,1c-2-0.5-3.7-2.1-4.7-3.7c-0.6-0.9-2-0.1-1.5,0.9
	c1.3,2.7,3,5.3,6.3,5.9c2.1,0.4,6.1-0.4,5.9-3.2C321.4,393.6,320.9,393.3,320.3,393.4z"/>
<path id="XMLID_28_" class="st5" d="M323.9,382.1c0.1-0.2,0.1-0.5,0-0.7c-0.1-0.4-0.4-0.7-0.8-0.8c-0.5-0.1-1,0.1-1.3,0.5
	c-0.3,0.5-0.3,1.1,0.1,1.6c0.5,0.7,1.5,0.6,1.8-0.2c-0.1,0.2-0.1,0.2,0,0C323.7,382.4,323.8,382.3,323.9,382.1z"/>
<path id="XMLID_56_" class="st6" d="M119.1,410.3c-4-7.2-9.2-13.4-13.9-20.2c-4.5-6.6-8.9-13.3-12.7-20.3c-4-7.2-7.4-14.6-10.4-22.2
	c-2.9-7.4-4.8-15.4-8.4-22.5c-1.3-2.6-5.6-1.4-5.5,1.5c0.2,8.4,3.5,17,6.5,24.7c3.1,7.8,6.6,15.4,10.6,22.7
	c7.7,14.1,17.5,30,31.4,38.7C118.2,413.7,119.9,411.8,119.1,410.3z"/>
<path id="XMLID_60_" class="st6" d="M144.6,432.3c-1.4-3.2-5.5-4.8-8.3-6.6c-3.3-2.2-6.9-4-10.4-5.9c-1.4-0.8-2.7,1-1.7,2.2
	c2.7,3.1,5.3,6,8.6,8.4c2.8,2.1,6.2,5.4,9.9,5.2C144.5,435.4,145.2,433.8,144.6,432.3z"/>
<path id="XMLID_61_" class="st6" d="M169.3,443.2c-1.1-1.9-3.4-1.5-5.4-1.7c-2.4-0.2-4.8-0.2-7.3-0.4c-1-0.1-1.3,1.4-0.5,1.9
	c2.3,1.3,4.5,2.5,7.2,2.9c2.1,0.3,4.7,0.9,6-1.2C169.6,444.3,169.6,443.7,169.3,443.2z"/>
<path id="XMLID_62_" class="st6" d="M399.7,280.9c-8.3-9.7-23.7-11.8-35.5-7.9c-1.6,0.5-1.2,2.7,0.4,2.9c10.7,1.3,21.6-1.7,30.2,6.8
	c3.6,3.6,6,8.5,6.3,13.6c0.3,5.3-1.7,9.7-3.4,14.6c-0.6,1.8,1.8,3,3,1.8C409.3,304.4,406.8,289.2,399.7,280.9z"/>
<path id="XMLID_63_" class="st6" d="M396,322.1c-2.2,3.7-4.8,7.1-7.9,10.1c-2.9,2.8-6.2,5.3-8.9,8.3c-0.6,0.7,0.2,1.6,1,1.3
	c7.8-3.3,15-10.8,17.2-19C397.7,321.9,396.4,321.3,396,322.1z"/>
<path id="XMLID_72_" class="st6" d="M378.7,343.5c0-0.1-0.1-0.1-0.1-0.2c-0.1-0.2-0.4-0.3-0.6-0.3c-0.2,0.1-0.3,0.2-0.4,0.4
	c-0.1,0.2,0.1,0.5,0.3,0.6c0.1,0,0.1,0.1,0.2,0.1C378.5,344.5,379,344,378.7,343.5z"/>
<path id="XMLID_206_" class="st7" d="M315.7,288.3c0,0-1.5-0.5-2.5-0.6c-6.9-0.2-33.8,5.2-56.8,5.7c-19.8,0.5-41.9-4.3-67.2-8.2
	c-46.8-7.3-130.3,16.6-129.1,27.2c0.4,3.3,21.6,8.2,55,8.6c20,0.3,42.8-1.4,72.7-4c55.5-4.9,115.7-21.8,126.5-28
	C315.1,288.6,315.7,288.3,315.7,288.3z"/>
<path id="XMLID_10_" class="st8" d="M222.4,302c-0.1-0.1-0.3-0.1-0.4-0.2c-0.1-0.2-0.2-0.3-0.4-0.3c-9.1-2.4-18.2-4.2-27.2-6.8
	c-1-0.4-2-0.7-3.1-0.9c-8.9-2.6-17.9-4.8-27.2-5.2c-18.9-0.8-39,1.9-56.2,10c-1.1,0.5-0.1,2,0.9,1.6c17.7-8,39-10.5,58.2-8.9
	c8.3,0.7,16.3,2.9,24.2,5.3c0,0,0,0,0,0c0.5,0.2,1.1,0.5,1.6,0.7c1.8,1.6,4.5,2.7,6.5,3.8c1.9,1.1,3.8,2.3,5.8,3.4c0,0,0,0,0,0
	c0.6,0.6,1.4,1,2,1.3c0.1,0,0.2,0.1,0.2,0.1c1.2,0.8,2.6,1.1,4.1,1.3c0.6,0.1,1.2,0.2,1.7,0.2c0.2,0,0.4,0,0.6,0
	c2.8,0.2,5.8,0,8-1.8c0.2,0,0.3-0.1,0.5-0.2c0.6-0.3,0.9-1,0.9-1.6C223.4,302.9,222.9,302.3,222.4,302z"/>
<path id="XMLID_31_" class="st8" d="M100.2,312.7c0.1-1-1.5-1.4-2.1-0.8c-0.1,0-0.3,0-0.4,0c-1,0-2,0.1-2.9,0.1
	c-1.2,0-2.4,0-3.6-0.1c-1.2-0.2-2.4-0.4-3.6-0.7c0,0-0.1,0-0.1,0c-0.6-0.6-0.9-1.5-0.5-2.6c0.5-1.4,1.8-2,3-2.7
	c0.4-0.2,0.1-0.8-0.3-0.7c-2.7,1.1-6.1,3.4-3.9,6.7c1.1,1.6,2.9,2.3,4.8,2.5c1.4,0.2,3.1,0.3,4.7,0.3c0.6,0.1,1.2,0.2,1.8,0.1
	c1.2-0.1,2.5-0.6,3-1.7C100.1,313,100.2,312.9,100.2,312.7z"/>
<path id="XMLID_13_" class="st8" d="M189.1,302.6c-2.8-0.6-5.6-1.1-8.4-1.5c-0.1,0-0.1,0.1,0,0.1
	C183.5,301.6,186.3,302.1,189.1,302.6C189.1,302.7,189.1,302.6,189.1,302.6z"/>
<path id="XMLID_22_" class="st8" d="M267.2,298.1c-21.4,3.5-42.8,14.1-64.8,11.8c-0.3,0-0.3,0.4,0,0.4c10.7,1.4,20.9-0.7,31.3-3
	c11.3-2.6,22.9-4.5,33.9-8C268.4,299,268,297.9,267.2,298.1z"/>
<path id="XMLID_23_" class="st8" d="M114.5,293.3c-10.3,1.3-20.5,5.5-29.3,10.8c-4.1,2.4-12.2,8.9-3.3,11c0.5,0.1,0.7-0.7,0.2-0.8
	c-3.2-3-3.6-5.2-1.2-6.6c0.8-0.6,1.6-1.2,2.4-1.7c1.2-0.8,2.4-1.5,3.6-2.2c3.2-1.8,6.4-3.4,9.8-4.7c5.8-2.4,11.8-3.8,17.8-5.3
	C114.9,293.8,114.9,293.3,114.5,293.3z"/>
<path id="XMLID_24_" class="st8" d="M174.7,306.9c-14.6,1-28.9,4.8-43.5,5.1c-1.9,0-3.7,0-5.6-0.1c-1-0.1-1.9-0.2-2.9-0.3
	c-1.8-2.6-1.8-4.2,0-5c2.2-2,6.7-2.8,9.6-3.3c1.9-0.3,3.7-0.5,5.6-0.5c0.6,0.3,1.3,0.5,1.9,0.8c0,0.2,0.1,0.3,0.3,0.4
	c0.2,0.1,0.3,0.1,0.5,0.2c1.3,1.1,4.4,1.4,5.3,1.7c0.7,0.3,1.8,0.7,2.9,1.1c1.6,1.5,4.5,0.7,5.9-0.9c0,0,0,0,0.1,0c0,0,0,0,0,0
	c0.1-0.1,0.1-0.1,0.2-0.2c0.1-0.2,0.2-0.3,0.2-0.4c0.2-0.3,0.2-0.6,0.1-0.9c0-0.2-0.1-0.4-0.4-0.5c-0.1,0-0.2-0.1-0.4-0.1
	c0,0-0.1,0-0.1,0c-0.1,0-0.2-0.1-0.3-0.1c-0.1,0-0.3-0.1-0.4-0.1c-7.9-2.1-16.1-3.2-24.1-1.2c-3,0.7-13.6,3.8-10.5,8.8
	c1.4,2.2,5.2,2,7.4,2.1c5.3,0.2,10.6-0.2,15.9-0.8c10.8-1.3,21.8-2.5,32.4-4.8C175.2,307.6,175.1,306.9,174.7,306.9z"/>
<path id="XMLID_30_" class="st8" d="M192.1,306.1c-3.2-0.8-7.3-0.4-10.5,0.2c-0.4,0.1-0.3,0.7,0.1,0.7c3.4,0,7.1,0.3,10.4-0.3
	C192.5,306.7,192.4,306.2,192.1,306.1z"/>
<path id="XMLID_29_" class="st3" d="M379.7,292.6c-0.5,0-0.7,0.6-0.4,1c0.1,0.1,0.2,0.2,0.3,0.2c0.8-0.1,3.2,3.4,3.8,4.3
	c2,3.7,1.3,7.5-1,10.8c-3.2,4.7-7.4,8.6-10.5,13.4c0,0.1-0.1,0.1-0.1,0.2c-1.3,1.4-2.7,2.7-4.2,4c-1.9,1.6-4.1,3-6,4.7
	c-0.2,0.2,0,0.7,0.3,0.5c1.2-0.4,2.3-1.1,3.5-1.8c0,0,0,0,0.1,0c1.8-0.8,3.3-2.5,4.7-3.8c1.4-1.3,2.6-2.7,3.9-4.2
	c3.1-3.1,5.9-6.5,8.7-9.9c1.9-2.4,3.6-4.7,3.9-7.8C386.9,300.6,384.6,292.5,379.7,292.6z"/>
<path id="XMLID_64_" class="st3" d="M370.3,270.1c-14.5-0.2-29.3,3.8-42.4,9.9c-0.3,0.1-0.1,0.6,0.2,0.5c13.7-5.8,27.5-8.5,42.2-9.9
	C370.6,270.6,370.6,270.1,370.3,270.1z"/>
<path id="XMLID_195_" class="st2" d="M187.9,454.5c-2.3-0.9-4.8-0.9-7.4-0.6c-1,0.7-14.3,0.7-19.6-2c-8.9-4-17.8-8-26-13.3
	c-9.9-6.5-18.7-14.5-26.6-23.2c-8.4-9.3-15.5-19.7-22.1-30.4c-6.6-10.7-19.9-40-21.8-44.6c-0.1-0.3-0.2-0.5-0.2-0.5
	c-0.6,0.2,4.6,22.4,7.4,29.3c2.7,6.5,5.7,12.9,9.2,19.1c6.3,11.5,13.7,22.5,22.3,32.4c14.9,17.4,36.3,35.2,60,37.3
	c1.5,0.3,3,0.4,4.5,0.5c1.4,0.1,3,0.2,4.5,0.1c0,0,0,0,0,0c5.1,0.1,11.4,0.3,16.1-1.7C189.2,456.3,188.7,454.8,187.9,454.5z"/>
<path id="XMLID_194_" class="st6" d="M195.4,447.7c-0.1,0-0.1,0.1,0,0.1C195.5,447.8,195.5,447.7,195.4,447.7z"/>
<path id="XMLID_193_" class="st2" d="M303.6,396.8c-5.6,6.1-9.6,13.4-15.5,19.4c-5.9,6.1-12.6,11.2-19.9,15.6
	c-8.1,4.9-16.7,8.8-25.7,11.8c-4.5,1.5-9.1,2.8-13.7,4c-4.1,1.1-8.7,1.7-12.4,3.9c-1.3,0.8-1.2,3.1,0.4,3.4
	c8.8,1.6,19.9-2.9,28.1-5.7c9.4-3.3,18.5-7.4,26.9-12.8c7.3-4.7,14-10.3,19.9-16.6c5.6-6,11.9-13.8,13.6-22.1
	C305.5,396.9,304.4,396,303.6,396.8z"/>
<path id="XMLID_192_" class="st2" d="M66.1,336.9c0,0,0-0.1-0.1-0.1c0-0.1,0-0.1,0-0.2c-0.4-2.4-1.6-4.6-2.2-7
	c-0.2-0.7-0.4-1.5-0.6-2.2c-0.4-3.1-1.1-6.3-2.3-9.3c-0.9-2.2-1.2-8-0.5-8.4c0.1-0.3,0.1-0.5,0.2-0.8c0.3-0.8,0.8-1.6,1-2.5
	c0.1-0.4-0.3-0.6-0.6-0.4c0.1-0.3,0.2-0.6,0.3-0.9c0.1-0.2,0-0.4-0.2-0.5c0-0.1,0.1-0.1,0.1-0.2c0.2-0.3-0.1-0.6-0.4-0.5
	c-1.5,0.5-2.5,1.7-3.1,3.1c-0.5,0.7-0.8,1.7-0.9,2.6c-0.6,2.3,3.5,18,4.2,18.9c0.7,2.4,1.7,4.8,3,6.8c0.4,0.7,0.9,1.4,1.4,1.9
	C65.8,337.6,66.2,337.2,66.1,336.9z"/>
<path id="XMLID_191_" class="st6" d="M322.7,288.5c-0.2-0.3-0.6-0.2-0.7,0.1c-0.1,0.4-0.3,0.7-0.3,1.1c0,0-0.1,0-0.1,0.1
	c-8.2,6.8-17.2,11.9-27.2,15.4c-10.1,3.5-20.7,4.9-31,7.9c-0.8,0.2-0.7,1.7,0.2,1.6c19.7-1.6,43.7-7.8,57.8-22.8
	c-0.2,2.2,0.2,4.4,0.2,6.6c0.1,3.6,0.1,7.1,0.1,10.7c-0.2,7.3-1.9,15-1.3,22.3c0.1,1.2,1.5,1.3,2,0.3c2.7-6.7,2.5-15.4,2.6-22.5
	C324.9,303.2,326.1,293.7,322.7,288.5z"/>
<path id="XMLID_190_" class="st6" d="M250.6,314.5c-1.6,0-3.1,0.7-4.6,1c-1.9,0.3-3.9,0.5-5.9,0.7c-0.4,0-0.5,0.6-0.1,0.7
	c3.3,0.9,8.2,0.8,11-1.4C251.4,315.2,251,314.5,250.6,314.5z"/>
<path id="XMLID_189_" class="st5" d="M57.4,317.5"/>
<path id="XMLID_188_" class="st5" d="M303.6,372.3"/>
<path id="XMLID_32_" class="st4" d="M271,455c-7.5,0.6-15,3.4-22.3,5c-7.4,1.7-14.8,3.1-22.2,4.3c-16.3,2.7-32.7,4.2-49.2,4.2
	c-16.1,0.1-32.1-1.3-48-4.1c-7.2-1.3-15.5-2.4-22.2-5.7c-11.7-5.7,3.9-16,10-18.8c1.1-0.5,0.2-2.2-1-1.7
	c-5.4,2.4-13.9,7.2-15.6,13.5c-1.3,4.9,3,7.9,6.9,9.6c16.2,6.9,35.5,8.6,52.9,9.6c19.1,1.1,38.2,0.1,57.2-2.4
	c8.9-1.2,17.7-2.7,26.4-4.5c8.9-1.9,19.3-3.2,27.5-7.4C272.3,456.3,271.9,454.9,271,455z"/>
<path id="XMLID_38_" class="st4" d="M288.6,445.8c-0.5-0.4-1.3-0.6-1.8,0c-0.6,0.7-1.3,1.3-2.1,1.9c-0.4-0.7-0.8-1.5-1-2.3
	c-0.4-1.3-2.3-2.1-3.2-0.9c-1.7,2.1-3.1,4.6-3.2,7.4c-0.1,2.1,2.7,2.1,3.3,0.5c0.3-0.7,0.6-1.4,0.8-2.1c0.3,0.7,0.8,1.4,1.6,1.6
	c0.1,0.1,0.1,0.2,0.2,0.2c1.4,1.4,3.5,3,5.5,2c0.6-0.3,0.8-1,0.7-1.6c-0.3-1.1-1.2-1.7-2.1-2.4c0.5-0.6,0.9-1.2,1.2-1.9
	c0.5,0.1,1,0.1,1.6,0c0.4-0.1,0.8-0.6,0.8-1.1C290.7,446,289.4,446.4,288.6,445.8z"/>
<path id="XMLID_34_" class="st5" d="M293.1,445.8c-0.3-0.1-0.5-0.1-0.7-0.1c-0.4,0-0.4,0.7,0,0.7c0.3,0,0.5,0,0.7-0.1
	C293.3,446.2,293.3,445.9,293.1,445.8z"/>
<path id="XMLID_33_" class="st4" d="M315.4,420.6c-0.9,0.1-0.9,1.2,0,1.3c7,0.5,8.9,8.5,4.3,12.5c-3,2.6-7.2,3.6-10.8,5.4
	c-0.4-0.1-0.8,0-1.2,0.3c-0.7,0.6-1.5-0.2-2.3-0.3c-0.7-0.1-1.4,0.1-2,0.5c-1.3,0.8-2,2.3-2.3,3.7c-0.2,1,1.5,1.5,1.8,0.4
	c0.2-0.7,0.5-1.7,1.1-2.1c0.7-0.6,1.1,0.1,1.8,0.5c1.4,0.8,3.5,0.3,4.2-1.1c0.1-0.1,0.1-0.2,0.1-0.3c6.1-1.1,13-5.3,14.2-10.8
	C325.3,425.5,321.6,420,315.4,420.6z"/>
<path id="XMLID_37_" class="st4" d="M329.8,456.2c-6.7,1.3-13.2,3.8-19.8,5.6c-6.9,1.9-13.9,3.6-21,5c-13.7,2.8-27.8,3.4-41.5,6.3
	c-0.3,0.1-0.2,0.5,0.1,0.5c13.9,1.5,28.6-1.1,42.3-3.8c13.5-2.6,28.5-5.5,40.7-12C331.4,457.3,330.8,456,329.8,456.2z"/>
<path id="XMLID_80_" class="st4" d="M361.4,411.7c-0.6-0.4-1.2-0.4-1.7-0.2c-0.4-0.4-0.6-1-0.6-1.8c0-1-0.9-2.1-2-2
	c-1.5,0.1-2.8,0.6-3.8,1.8c-1.2,1.5,0.4,4.4,2.3,3c0,0,0,0,0,0c0.4,1.1,1.2,2.1,2.1,2.8c1.4,1.2,3.8,2.2,5.5,1
	c2,0.9,4.2,1.6,6.4,2.4c4.9,1.9,10.1,3.9,14.6,6.7c1.1,0.7,3.2,2.1,3.6,3.5c0.8,2.8-1,5.9-3.1,7.5c-1.8,1.3-3.8,2.5-5.8,3.7
	c-4.9,2.8-10.2,5-15.3,7.1c-0.8,0.3-0.5,1.4,0.3,1.2c6.5-1.1,12.2-3.6,17.6-7.3c3.7-2.5,8.5-5.7,8.5-10.7
	C390,417.4,368.7,417.4,361.4,411.7z"/>
<path id="XMLID_39_" class="st5" d="M357.9,448.6c-0.4-0.6-0.8-0.8-1.5-0.9c-0.9-0.1-1.9,0.4-1.9,1.4c0,1,0.9,1.6,1.9,1.4
	c0.7-0.1,1.1-0.4,1.5-0.9C358.1,449.3,358.1,448.8,357.9,448.6z"/>
<path id="XMLID_40_" class="st5" d="M345.8,408.6c-0.2-0.1-0.4-0.3-0.7-0.4c-0.3-0.1-0.7-0.1-1-0.1c-0.5,0.1-1.2,0.3-1.2,0.9
	c0,0.6,0.6,0.8,1.1,0.9c0.3,0.1,0.6,0,1-0.1c0.3-0.1,0.5-0.3,0.8-0.4C346.1,409.3,346.1,408.8,345.8,408.6z"/>
<path id="XMLID_42_" class="st2" d="M54.5,401.1c-14.6,2.1-29.6,7.6-41.5,16.6c-4.5,3.4-10.4,8.1-12.5,13.6c-1.6,4.1-0.1,9,4.8,9
	c1.1,0,1.2-1.5,0.3-1.9c-2.4-0.8-2.6-4.2-2.1-6.1c0.4-1.7,1.8-3,2.9-4.3c1.7-2,3.5-3.8,5.4-5.5c4-3.5,8.4-6.3,13.1-8.7
	c3.5-1.8,7.1-3.3,10.8-4.7c6.3-2.4,12.7-4.3,19-6.6C55.8,402.1,55.4,400.9,54.5,401.1z"/>
<path id="XMLID_76_" class="st2" d="M411.4,450.5c-3.7,2.4-7.9,4.1-12,5.8c-0.2-0.3-0.6-0.5-1-0.4c-15.4,3.8-30.3,9.8-45.7,13.7
	c-10.8,2.7-21.6,4.8-32.5,6.8c-0.1-0.1-0.2-0.1-0.3-0.1c-3.1-0.3-6.4,0.1-9.7,0.6c-0.2-0.3-0.4-0.4-0.8-0.4
	c-7.7,0.3-15.4,2.8-22.9,4c-8.1,1.3-16.2,2.4-24.3,3.2c-16.3,1.6-32.7,2.1-49,1.6c-16.2-0.5-32.4-1.8-48.5-3.2
	c-13.7-1.3-27.5-3.1-41.2-3.9c0.1-0.4-0.1-0.9-0.7-1c-15-1.9-30.1-2.5-45-5.4c-14.3-2.8-28.5-6.7-42.1-11.7c-1-0.4-1.4,1.2-0.4,1.6
	c14.2,5.7,28.7,10.1,43.7,13.1c11.4,2.3,23.4,4.2,35.1,4.3c0.1,0.2,0.3,0.4,0.5,0.4c16.2,2.7,32.8,3.6,49.1,5.2
	c16.8,1.6,33.6,3,50.4,3.5c16.7,0.5,33.3,0,49.9-1.7c1.3-0.1,2.6-0.3,3.8-0.4c11.6-0.8,23.4-1.6,34.8-3.5c1.3-0.1,2.7-0.2,4-0.4
	c2.4-0.3,4.8-0.5,7.1-0.9c9.8-0.9,19.7-2.4,28.9-5.1c5-0.9,10-2,14.9-3.2c5.2-1.3,11-2.3,16.2-4.3c3.5-0.8,7-1.7,10.4-2.8
	c5.6-1.8,11.7-3.3,16.8-6.4c0.4-0.2,0.5-0.6,0.5-0.9c3.7-2.1,7.3-4.3,10-7.6C411.6,450.6,411.5,450.5,411.4,450.5z"/>
<path id="XMLID_77_" class="st2" d="M88.2,393c0-0.4-0.2-0.7-0.6-0.8c0,0-0.1,0-0.1,0c-0.1-0.6-0.5-1.2-1-1.9
	c-0.2-0.5-0.4-1.1-0.6-1.6c-0.1-0.4-0.6-0.5-0.9-0.2c0-0.1,0.1-0.3,0.1-0.4c0.2-0.7-0.8-0.9-1-0.3c-0.2,0.5-0.8,1-1.2,1.5
	c-0.4,0.5-0.8,1-1.2,1.4c-0.9,0.9-1.9,1.6-3,2.2c-0.9,0.2-1.7,0.4-2.5,0.7c-3.5,0.6-6.8,1.6-9.6,3c-0.3,0.2-0.5,0.4-0.6,0.7
	c-2,0.5-3.9,1.1-5.7,1.9c-0.8,0.4-0.3,1.5,0.4,1.6c6.4,0.3,14.7-1.3,20.7-4.7c1.7-0.3,3.3-0.5,5-0.8c0.5,0.3,1.1,0.2,1.4-0.3
	c0.2,0,0.4-0.1,0.6-0.1C89.4,394.6,89.1,393.2,88.2,393z"/>
<path id="XMLID_71_" class="st6" d="M352.3,344.3c-9.5-1.6-21.4,5.6-28.5,11.2c-7.4,5.8-17.5,16.2-15.9,26.5c0.2,1.4,2.3,1,2.4-0.3
	c0.6-10,10.3-19.7,18-25.2c3.7-2.6,7.7-4.8,12-6.5c4-1.6,8.4-2,12.3-3.8C353.3,345.7,353.2,344.4,352.3,344.3z"/>
<path id="XMLID_78_" class="st6" d="M341.6,354.2c-7,0.4-13.9,4.2-17.6,10.3c-0.3,0.5,0.4,0.8,0.7,0.4c4.1-5.9,10.6-7.6,17-9.8
	C342.2,354.9,342.1,354.1,341.6,354.2z"/>
<path id="XMLID_36_" class="st4" d="M77.1,455.7c-6.8-1.2-13.2-3.7-19.1-7.5c-1.1-0.7-2.9-1.6-3.7-2.7c-2-3,0.9-6.5,2.6-8.4
	c2.1-2.4,4.6-4.4,6.9-6.6c0.6-0.6,0-1.7-0.8-1.4c-5.8,1.8-16.6,10.3-12.9,17.4c1.9,3.6,6.8,6,10.3,7.7c5,2.4,10.3,3.9,15.8,4.6
	C78.2,458.9,79.1,456.1,77.1,455.7z"/>
<path id="XMLID_74_" class="st5" d="M92.7,458.8c-0.9-0.1-1.8,0.1-2.7,0.2c-1.8,0.1-2.3-0.1-3.8-0.9c-1.4-0.8-2.6-1.3-4-0.3
	c-1.4,1-0.2,3.1,1.4,2.3c0.5-0.3,2.8,1.7,3.3,1.9c1,0.4,1.9,0.3,3,0.1c2-0.2,3.7-0.3,5.6,0.8c1.5,0.8,2.4,2.4,4,3
	c0.7,0.3,1.4,0,1.5-0.8C101.1,461.2,95.8,459.1,92.7,458.8z"/>
<path id="XMLID_83_" class="st4" d="M352.5,454.7c-0.5-1.6-1.1-3.1-1.7-4.6c-0.7-1.6-1.3-3.4-2.6-4.6c-0.3-0.3-0.9-0.2-1,0.3
	c-0.7,3.6,1.4,8,2.6,11.4c0.4,1.1,1.5,1.5,2.6,1c0.6-0.3,0.9-0.6,1.1-1.1C353.9,456,353.4,455,352.5,454.7z"/>
<path id="XMLID_79_" class="st5" d="M356.9,445.6c-2.8-0.6-5.5,2.3-4.5,5c0,0.1,0.1,0,0.1,0c-0.8-2.6,1.7-5.4,4.4-4.8
	C356.9,445.8,357,445.6,356.9,445.6z"/>
<path id="XMLID_85_" class="st4" d="M348.2,453.4c-0.4-0.8-1.3-1-2.1-1.1c0-0.1-0.1-0.3-0.2-0.4c-0.6-1.1-2.1-1.5-3.1-0.5
	c-1.2,1.1-0.5,2.9,0.6,3.7c1,0.7,3,0.8,4.1,0.3C348.4,455,348.5,454,348.2,453.4z"/>
<path id="XMLID_35_" class="st4" d="M93,413.2c-4,1.2-8.1,2.7-11.9,4.6c-0.4,0-0.8,0-1.1,0c-2.2,0-4.2-1-6.4-1c-3,0-5.6,1.8-5.8,4.9
	c-0.1,1.1,0.8,1.7,1.6,1.7c0,0.2,0,0.4-0.1,0.6c-0.1,0.7,1.1,0.9,1.2,0.2c0.1-0.3,0.1-0.7,0.2-1c0.4-0.3,0.7-0.8,0.7-1.4
	c0-0.2,0-0.4-0.1-0.6c-0.1-0.3,2.5,0,4.3,0.3c0.1,0.1,0.1,0.1,0.2,0c0.7,0.1,1.2,0.2,1.4,0.2c1.4,0.3,2.9,0.4,4.4,0.3
	c2.7-0.3,4.7-1.2,6.5-3.2c0.7-0.9,0-2-1.1-1.8c-1,0.2-2.1,0.4-3.2,0.6c3-1.4,6.1-2.7,9.3-3.7C93.5,413.7,93.3,413.1,93,413.2z"/>
<path id="XMLID_82_" class="st2" d="M32.5,461.8c-2.3-1.6-5-2.7-7.4-4.1c-1.2-0.7-2.5-1.4-3.6-2.3c-1.5-0.8-2.4-2.1-2.8-3.9
	c0.2-0.4,0.3-0.8,0.3-1.3c-0.1-1.4,0.1-2.1-0.9-3.2c-1.7-1.9-5.8-1.6-6.5-4.5c-0.2-0.8-1.3-0.6-1.3,0.2c-0.1,1.9,0.8,2.9,2.4,3.8
	c2.3,1.2,3.7,1.2,4,4.5c0.1,1.3-0.6,1.5-0.1,2.9c0.8,2,3.9,3.4,5.5,4.5c3,1.9,6.3,4,9.8,4.6C32.7,463.1,33.1,462.2,32.5,461.8z"/>
<path id="XMLID_41_" class="st2" d="M60.6,318.5c-0.2-0.5-1-0.1-0.8,0.3c1.7,5.8,3,11.9,5.5,17.4c0.2,0.5,1,0.2,1-0.3
	C65.6,329.9,63.1,324.2,60.6,318.5z"/>
<path id="XMLID_81_" d="M72.1,350c-1.2-1.2-2.2-2.2-1.7-4c0.1-0.4-0.2-0.8-0.6-0.8c-0.2-0.6-0.5-1.2-0.7-1.8
	c0.1-0.4-0.2-0.8-0.6-0.8c-0.6,0.1-0.1-3.3-0.2-3.9c-0.1-0.3-0.6-0.6-0.9-0.4c-0.6,0.5-1,0.8-1.2,1.7c-0.1,0.5,0.5,0.7,0.8,0.4
	c-0.3,1.4-0.7,3.2,0.8,3.4c-0.1,1.1,0.2,2.2,1.3,2.6c-0.2,1.9,0.6,4.2,2.8,4.4C72.2,350.7,72.3,350.2,72.1,350z"/>
<path id="XMLID_157_" class="st0" d="M341.5,47.7c0-8.3-2.5-17.6-6.7-24.8C324.3,5,302.4-3.9,282.4,1.6c-8,2.2-15.4,7-21.4,12.7
	c-4,3.8-6.5,7.9-8.6,12.4c-5.4,2.3-10.3,5.5-14.6,9.5c-0.9,0.4-1.8,0.9-2.6,1.3c-24.5,9.2-50.6,12.7-76,18.6
	c-13.7,3.2-27.4,6.7-40.6,11.6c-15.1,5.7-29,13.8-41.7,23.7c-2,1.1-3.9,2.2-5.7,3.3c-11.6,7.3-22.4,17.5-28.3,30.2
	c-4.8,10.4-8.5,21.3-10.7,32.5c-3.7,11.4-5.1,23.8-3.3,35.3c-0.3,2.6-0.4,5.1-0.3,7.4c0.2,9.5,2,19.1,4.9,28.2
	c1.5,4.6,3.2,9.9,5.6,14.7c0.6,2,1.3,4,2,6c0.7,1.8,1.3,3.7,2.1,5.5c0.2,3.9,1.5,7.5,3.5,10.5c0.1,0.5,0.4,1,0.9,1.5
	c1.2,1.2,2.4,2.3,3.6,3.5c5.9,8.8,14.4,15.4,22.8,21.9c3.1,2.4,5.8-2.4,3.9-5c-4.1-5.3-4.4-10.6-2.6-16.1c4.1-2.5,7.4-6.3,8.3-11.1
	c1.1-2.4,1.7-5.1,1.6-8c0.1-0.4,0.2-0.9,0.3-1.3c0.1-0.5,0.3-1,0.5-1.6c0.5-1,1-2,1.5-3c2-0.4,3.9-0.8,5.9-1.2
	c5.1-0.5,10.1-1.1,15.1-2.1c5.2-1,10.3-2.5,15.4-3.7c9.6-2.3,19.3-4.6,28.9-6.9c17.7-4.2,35.1-8.8,52.3-14.9
	c19.9-7,39.9-15.1,57.9-26.2c15.8-9.8,31.3-21.8,43.2-36.2c7.7-9.4,15.4-19.1,20.8-30.1c3.4-6.8,6.5-14,9-21.2
	c1.9-5.6,2.4-12,2.7-17.8c0.2-5.1-0.4-10.8-2-16.1C339.4,62.5,341.5,55.7,341.5,47.7z"/>
<path id="XMLID_156_" class="st0" d="M103.9,255.7c-0.7-0.6-1.5-0.9-2.3-1c-0.6-0.2-1.2-0.2-1.8-0.2c-4.7-0.3-11.5,2.4-11.9,7.6
	c-0.2,0.3-0.4,0.5-0.5,0.8c-2.1,4.1-0.5,8.8,3.4,11c1.1,0.6,2.8-0.4,2.3-1.8c-0.3-0.7-0.6-1.6-0.9-2.5c0.2-0.3,0.3-0.8,0-1.2
	c-0.6-1.1-0.6-2.2-0.3-3.2c0.4,0,0.9-0.2,1.3-0.5c0.4,0.2,0.9,0.2,1.3,0.1c0.9-0.2,1.9-0.4,2.9-0.6c0.2,0,0.3,0,0.5,0.1
	c0.6,0.1,1.1-0.1,1.5-0.5c1.2-0.2,2.3-0.7,3.4-1.8c0.7-0.7,0.8-1.5,0.7-2.2c0.5-0.7,0.6-1.5,0.5-2.4c0,0,0,0,0.1-0.1
	C104.3,257,104.4,256.1,103.9,255.7z"/>
<path id="XMLID_155_" class="st0" d="M56.2,285.7c-0.3-0.7-0.7-1.3-1.1-1.8c-0.7-1.5-1.7-3-2.9-4.6c-0.6-1.6-1.5-3.1-2.6-4.2
	c-1.1-1.1-2.4-2-3.9-2.6c-0.7-0.3-1.5-0.5-2.3-0.6c-0.4-0.1-2.3-0.3-1.6,0c-0.8-0.4-1.6-0.3-2.1,0c-1.2,0.1-2.5,0.6-3.6,1.4
	c-3.4,2.5-2.8,7.2,0.1,9.8c3.6,3.3,13.7,2,13.8,8.3c0,2.2,3.5,3.5,4.5,1.2c0.6-1.3,0.8-2.5,0.8-3.6C56.4,288.5,57,287.2,56.2,285.7z
	"/>
<path id="XMLID_154_" class="st0" d="M69.3,294.1c-0.9-2-3.1-2.9-5.1-2.5c-0.8,0.2-1.2,1.1-1,1.8c0.2,0.8,1,1.1,1.8,1
	c0.7-0.1,1.4,0.5,1.7,1.2c0.3,0.8,1.4,0.9,2.1,0.6C69.5,295.8,69.6,294.9,69.3,294.1z"/>
<path id="XMLID_153_" class="st0" d="M75.5,76.8c-9.4,1.9-18.3,10.7-25,17.2c-7.5,7.4-14,15.8-19.3,24.8C26,127.6,21.8,137.2,19,147
	c-2.6,9-5.9,21.6-3.2,30.8c0.5,1.8,2.9,1.7,3.5,0c1.5-4.6,1.5-9.9,2.3-14.6c0.8-4.7,1.9-9.3,3.2-13.9c2.8-9.6,6.7-18.8,11.8-27.4
	c5-8.4,11-16.1,17.9-23c3.7-3.7,7.6-7.1,11.8-10.3c3.8-2.8,7.9-5.2,11.1-8.7C78.7,78.5,77.4,76.4,75.5,76.8z"/>
<path id="XMLID_152_" class="st0" d="M24.3,206.1c-0.8-3.3-1.4-6.7-1.9-10.1c0.8-0.3,1.4-1,1.5-2.2c0.1-0.8,0-1.6-0.1-2.3
	c0-1.4,0-2.8-0.5-4.1c-0.3-0.6-0.9-0.9-1.5-0.6c-0.2,0.1-0.4,0.2-0.6,0.4c-0.3-0.3-0.6-0.5-1-0.7c-1.5-1-4,0.3-3.8,2.2
	c0.9,10.4,2.2,24.1,8.6,32.7c0.7,0.9,2.3,0.7,2.3-0.6C27,215.8,25.4,210.9,24.3,206.1z"/>
<path id="XMLID_151_" class="st0" d="M351.6,33.9c-1.7-7.4-4.7-14.6-9.1-20.8c-1.6-2.2-6.4-10-9.4-5.7c-0.7,1,0.7,2.4,1.7,1.7
	c0.6-0.4,7.8,12.6,8.4,13.9c2.6,5.7,4.3,11.9,5,18.2c0.6,5.7,0.5,11.5-0.5,17.2c-1,5.6-3.6,10.8-4.5,16.4c-0.2,1.3,1.3,2.5,2.4,1.4
	c4.7-5,6.2-12.8,7.1-19.3C353.7,49.1,353.3,41.4,351.6,33.9z"/>
<path id="XMLID_93_" class="st2" d="M166.7,101.6c-16,1.4-31.9,7.8-44.6,17.7c-6.5,5-12.4,10.8-17.5,17.2c0,0,0,0,0,0
	c-0.1-3.9-0.3-7.8-0.7-11.6c-1.1-11.1-3.1-22.1-6.4-32.8c-6.5-20.7-17-41.6-32.4-57.2c-3-3.1-8.7,1-6.1,4.7
	c11.7,17.4,21.7,35.1,27.3,55.5c2.7,9.7,4.6,19.6,5.5,29.7c0.4,5.2,0.6,10.3,0.5,15.5c-0.1,4.7-1.1,10.2,0.9,14.6
	c-0.3,0.9-0.5,1.8-0.7,2.7c-0.6,3,3.1,5.8,5.5,3.2c4.9-5.4,8.4-12.2,13.1-17.9c4.8-5.8,10.2-11.1,16.1-15.7
	c12.2-9.5,25.5-16.7,40.1-22C169.1,104.6,169,101.4,166.7,101.6z"/>
<path id="XMLID_97_" class="st2" d="M179.2,75.8c-4.9,1.8-10,5.5-15.1,6.3c-4.7,0.8-7.3-3.8-8.7-8.2c-0.3-1.4-0.7-2.8-1.1-4.2
	c-0.3-1.1-1.3-1.6-2.2-1.6c0.6-1.4-0.6-3.4-2.5-2.9c-10.3,2.2-19.8,5.5-25.8,14.7c-4.5,6.8-7.2,18-0.2,24.2
	c7.6,6.8,17.8-0.5,23.4-6.3c3-3,5.5-6.6,7.3-10.5c1.5,1.4,3.3,2.5,5.3,3.1c8.4,2.2,17.9-4.2,22.6-10.7
	C183.4,77.8,181.2,75.1,179.2,75.8z M143.4,88.5c-2.3,2.9-11.8,13.8-15.2,7.9c-2.9-5,2-12.5,5.1-16c4.3-4.9,10.4-8.8,16.6-10.8
	c-0.1,0.2-0.2,0.5-0.2,0.8c-0.1,1.7-0.2,3.4-0.2,5C148.6,80.1,146.1,85.1,143.4,88.5z"/>
<path id="XMLID_101_" class="st2" d="M263,60.1c-9.4,8.1-39.8,44.1-50.5,20.2c-0.7-1.6-1.1-3.4-1.1-5.2c0.1,0,0.1,0,0.2,0
	c7.8-0.3,14.5-3,20.6-8c3.9-3.2,11.7-10.5,5-15.1c-5.9-4-15.5-3.4-21.2,0.3c-1.7,1.1-3.2,2.4-4.6,3.8c0.1-0.1,0.2-0.3,0.2-0.5
	c0.6-1.4,0.5-2.5-0.5-3.7c-4-4.9-14.7,0.1-19.9,2.4c-0.4-2.2-0.8-4.3-1.3-6.5c-1.8-8.1-4.8-15.4-7.8-23.1c-0.8-2-3.8-1.3-3.3,0.9
	c1.6,7.7,2.4,15.5,3.8,23.3c0.5,3,1,6.1,1.5,9.1c-4.9,2.9-9.2,6.5-13.4,10.6c-3.4,3.4,1.7,8.5,5.2,5.2c2.8-2.6,6-4.9,9.3-6.9
	c0.2,2,0.4,4,0.6,6c0.6,7.5,1,15,0.9,22.5c0,3.7-0.1,7.5-0.2,11.3c-0.1,4-0.7,7.4,1.4,11c1.3,2.3,4.2,1.8,5.5,0
	c2.4-3.3,2.2-7.1,2.3-11c0.1-3.8,0.1-7.5,0-11.3c-0.2-8.1-0.9-16.3-1.9-24.3c-0.3-2.7-0.7-5.3-1.1-8c0.6-0.3,1.3-0.5,1.9-0.8
	c3-1.2,6.1-2.1,9.2-2.8c2.2-0.5,4.4-0.6,6.1-1.7c-3.2,3.9-5.3,8.6-6,13.5c-2.2,15.4,11.5,28.4,26.7,23.9c8-2.4,15.2-7.8,21.4-13.2
	c6.1-5.3,11.7-12.3,14.2-20C266.9,60,264.4,58.9,263,60.1z M227.6,56.8c0.4,0,3.8,0.4,4.3,0.8c-0.3-0.2-1.6,1.4-1.8,1.7
	c-1.8,1.8-3.7,3.5-5.8,5c-3.8,2.7-8.2,5.1-12.5,7C213.1,63.6,219.6,56.2,227.6,56.8z"/>
<path id="XMLID_92_" class="st2" d="M156.9,199.9c-0.2-6.2-1.7-12.7-2.8-17.6c-1.3-5.6-3-11.1-5-16.5c-2.1-5.7-5.1-11.2-7.1-16.9
	c-1.1-3-5.8-1.7-4.7,1.3c3.5,9.7,5.6,20.6,7.5,30.7c0.9,5.2,1.5,10.4,1.5,15.6c0.1,3-0.6,6.4-0.6,9.6c-1.6,1.5-3.1,2.3-5.4,0.4
	c-4.5-3.7-8.2-9-11.7-13.6c-7-9.2-13.4-19-19.3-29c-0.1-0.2-0.1-0.4-0.2-0.5c2-2.6-1.7-6.7-4.8-4.9c-5.6,3.2-1.3,10.9-0.2,15.5
	c1.8,7.2,2.4,14.4,2.2,21.8c-0.2,7.3-1.2,14.4-3.3,21.5c-1.1,3.8-2.5,7.5-4.1,11.1c-1.6,3.5-3,5.8-1,9.5c0.6,1.2,2.3,2.3,3.7,2.1
	c7-0.9,8.9-9.1,10.8-15c2.3-7,3.6-14.4,4.1-21.8c0.2-3.3,0.2-6.6,0-9.9c3,5.2,6.4,10.2,10.2,15c4.7,6,10.2,12.7,18.7,11
	c7.9-1.7,12.9-8.6,13.1-16.5C158.5,201.8,157.8,200.7,156.9,199.9z"/>
<path id="XMLID_94_" class="st2" d="M170.2,188.4c-0.9-6.2-1.5-12.6-3.2-18.7c-1-3.6-6.2-2.7-6.4,0.9c-0.3,6.3,0.5,12.7,1,19
	c0.4,5.5-0.2,12.7,2.8,17.4c1.8,2.9,5.8,2.2,6.9-0.9C173.3,200.8,171,193.8,170.2,188.4z"/>
<path id="XMLID_98_" class="st2" d="M163.9,149.7c-1.2-1.2-2.9-1.6-4.6-1.2c-1.5,0.4-2.9,1.7-3.3,3.3c0,0.1-0.1,0.3-0.1,0.4
	c-0.4,1.5,0,3.1,1.1,4.3c1.1,1.1,2.7,1.5,4.3,1.1c0.1,0,0.3-0.1,0.4-0.1c1.6-0.4,2.9-1.7,3.3-3.3C165.5,152.7,165,150.9,163.9,149.7
	z"/>
<path id="XMLID_103_" class="st2" d="M207.7,144.2c-0.1,0-0.2-0.1-0.2-0.1c-1.6-0.9-3.9-1.1-5.5,0c-5,3.3-9.9,6.8-14.5,10.7
	c-2.8-9.9-5.8-19.8-9.8-29.2c-0.9-2.2-4.9-2.3-4.6,0.6c1.4,11.7,4.1,23.3,7,34.8c-3.8,3.2-7.6,7.1-8.3,11.4
	c-0.4,2.4,1.3,4.2,3.8,3.8c2.6-0.4,5-2,7.3-3.8c2.8,11.8,5.3,23.7,8.8,35.2c1.9,6.2,11.1,3.7,9.7-2.7c-2.9-13.2-7.2-26.3-10.9-39.3
	c0.1-0.1,0.2-0.1,0.3-0.2c5.1-4,10.5-7.8,16-11.3c1.1-0.4,2.1-1.2,2.8-2.1c0.1-0.1,0.1-0.2,0.2-0.2
	C211.3,149.3,210,145.5,207.7,144.2z"/>
<path id="XMLID_107_" class="st2" d="M281.5,152.5c-3.7,3.6-6.5,8.1-10,11.9c-3.7,3.9-7.8,7.2-12.6,9.7c-4.7,2.5-9.9,4.1-15.1,4.7
	c-5,0.6-12.5,1.1-16.1-3.3c-0.9-1.1-1.5-2.5-1.8-3.9c2.6,0.4,5.5-0.1,7.9-1c7.4-2.9,14.5-7.9,19.8-13.8c4.5-5,7.4-11.6,0.8-16.4
	c-5.9-4.3-14.3-3.8-20.7-0.9c-12.4,5.7-20.9,23.5-16.9,36.7c4.7,15.6,24.9,15.5,37.6,11.7c13.9-4.2,32.6-16.5,33.1-32.8
	C287.7,151.8,283.6,150.4,281.5,152.5z M239.4,147c1.8-0.6,7.3-1.7,8.8,0.2c1.5,1.8-3.1,5.3-4.5,6.6c-2.3,2.2-4.8,4.2-7.4,5.9
	c-0.8,0.5-9.6,5.1-9.7,4.5c0-0.4-0.1-0.8-0.3-1.2c0.3-1.4,0.8-2.6,1.2-3.8C229.8,153.8,233.7,148.8,239.4,147z"/>
<path id="XMLID_114_" class="st2" d="M291.4,133.9c-0.5,0-1.1,0.2-1.5,0.5c-2.1-2.4-6.6-2.2-8.2,0.8c0,0.1-0.1,0.2-0.1,0.3
	c-0.9,1.7-1,3.6,0,5.3c0.9,1.6,2.7,2.6,4.5,2.6s3.6-1,4.5-2.6c0.2-0.4,0.4-0.8,0.5-1.2c0.1,0,0.2,0,0.3,0c1.5,0,2.9-1.3,2.9-2.9
	C294.2,135.2,293,133.9,291.4,133.9z"/>
<path id="XMLID_104_" class="st2" d="M95.5,238.4c-1.5-0.9-2.7-2.4-2.5-4.2c0.1-1.5,1.6-2.3,1.6-3.8c0-0.3-0.3-0.7-0.6-0.8
	c-2.5-0.6-3.8,3.1-3.8,5c0.1,2.6,2,4.9,4.6,5.3C95.7,240.2,96.4,238.9,95.5,238.4z"/>
<path id="XMLID_108_" class="st2" d="M206.2,157.4c-2,0.8-3.7,2.3-5.5,3.5c-2,1.4-4,2.7-6,4.2c-0.8,0.5-0.1,1.8,0.7,1.3
	c2.1-1.2,4.1-2.6,6.1-3.9c1.8-1.2,3.8-2.4,5.2-4C207.2,158.1,206.8,157.2,206.2,157.4z"/>
<path id="XMLID_109_" class="st2" d="M246.1,56.4c-0.6-4.7-4.1-8.3-8.1-10.6c-0.9-0.5-1.7,0.8-0.8,1.4c6.3,4.7,8.7,11.4,3.2,17.7
	c-0.5,0.5,0,1.7,0.8,1.3C245.1,64.8,246.6,60.4,246.1,56.4z"/>
<path id="XMLID_110_" class="st2" d="M235.3,71c0,0,0-0.1,0.1-0.1c0.2-0.4,0.3-0.9,0.1-1.3c-0.3-0.7-1-1-1.7-0.8
	c-1,0.2-1.5,1.3-1.3,2.2c0.2,0.8,1.1,1.1,1.8,1c0,0,0.1,0,0.1,0C234.8,71.9,235.1,71.5,235.3,71C235.3,71.1,235.3,71,235.3,71
	C235.3,71,235.3,71,235.3,71C235.3,71,235.3,71,235.3,71z"/>
<path id="XMLID_112_" class="st2" d="M94.2,164.8c-1.5,0.3-2.8,1.2-4.3,1.1c-0.2,0-0.3-0.1-0.4-0.1c0-0.1-0.1-0.2-0.1-0.3
	c-1.1-1.6-1.9-3.1-2.3-4.7c0-0.3,0-0.7,0.1-1c0.2-0.1,0.3-0.2,0.4-0.4c0.1,0,0.3-0.1,0.3-0.2c0.1-0.3,0.1-0.6,0.1-0.9
	c0.6-1.3,0.5-2.9,0.6-4.3c0.1-1.9,0.1-3.7-0.1-5.6c0.1-1.1,0.1-2.3-0.1-3.5c-0.2-1-1.9-1.1-2.1,0c-0.1,0.4-0.1,0.7-0.2,1.1
	c-0.3,0-0.6,0.2-0.7,0.6c0,0,0,0,0,0c-0.4,2.5-0.7,5.1-0.9,7.6c0,0.1,0,0.2,0,0.2c-1.2,3.5-2.2,7.3-0.8,10.4c0,0.2,0.1,0.4,0.1,0.5
	c0.5,1.3,1.7,2.2,3.1,2.7c3.1,1.4,7.7,1.4,8.3-2.3C95.3,165.1,94.8,164.6,94.2,164.8z"/>
<path id="XMLID_111_" class="st2" d="M166.1,148.5c-0.9-1.2-2.2-1.9-3.7-1.9c-0.7,0-0.6,1,0,1c1.2,0.1,2.2,0.8,2.8,1.8
	c0.3,0.4,0.5,0.9,0.6,1.4c0.1,0.5,0,0.9,0.3,1.3c0.1,0.2,0.4,0.3,0.6,0.1C167.7,151.4,166.7,149.4,166.1,148.5z"/>
<path id="XMLID_113_" class="st2" d="M168.5,147.3c-0.5-0.9-1.3-1.6-2.2-2c-0.5-0.2-1,0.5-0.5,0.8c0.7,0.4,1.3,1,1.8,1.7
	C167.9,148.4,168.8,147.9,168.5,147.3z"/>
<path id="XMLID_102_" class="st2" d="M297.7,133.6c-1.3,0-2.4,1.4-2,2.7c0,0.1,0,0.1,0,0.2c0.3,0.8,1.1,1.6,2,1.5
	c0.9,0,1.7-0.6,2-1.5c0-0.1,0-0.1,0-0.2C300.2,135,299.1,133.6,297.7,133.6z"/>
<path id="XMLID_115_" class="st2" d="M297.4,185.3c-1.4-0.6-3-0.7-4.5-0.7c-0.9,0-2.1,0.3-3,0c-1.2,0.1-1.7-0.8-1.6-2.7
	c0.7-0.4,1.3-0.5,2.1-0.4c1.6,0.1,1.9-2.6,0.4-3c-2.4-0.5-5,0.1-6.3,2.6c-1.1,2.3-0.3,5.1,1.7,6.4c3.2,2,7.4-0.4,10.5,1.7
	c3.5,2.4-2.4,4.3-4.1,4.4c-1.8,0.1-3.1-0.2-4.8,0.6c-0.7,0.3-1,1.5-0.5,2.1c3.4,5,13.9,1.4,14.2-4.8
	C301.7,188.7,299.8,186.4,297.4,185.3z"/>
<path id="XMLID_117_" class="st2" d="M305,178.4c-0.1-0.1-0.3-0.3-0.4-0.5c1.1-1.5,2.7-3,1.9-4.9c-0.2-0.4-0.6-0.6-1-0.6
	c-1.6-0.2-2.6,1.8-3.4,3.2c-2-1.6-4.3-2.9-6.1-2.3c-0.7,0.2-0.9,1-0.6,1.6c0.7,1.4,1.9,1.8,3.1,2.6c0.5,0.4,1,0.7,1.5,1.2
	c-0.7,1-1.4,2-2,3c-1,1.4,1.2,3.1,2.2,1.9c0.7-0.8,1.4-1.7,2.1-2.6c0.1,0.1,0.1,0.1,0.2,0.2c1.1,1.3,2.1,2.7,2.9,4.2
	c0.8,1.5,1.1,3,2.5,3.9c0.7,0.5,1.7,0,1.9-0.8C310.8,185.1,307,180.6,305,178.4z"/>
<path id="XMLID_116_" class="st2" d="M318.5,169c-1.5-1.8-5.3-3.9-7.4-2.4c-0.4,0.3-0.7,1-0.4,1.5c1.6,2.5,7.1,1.5,6,5.9
	c-0.2,0.7-0.5,1.5-0.9,2.1c-0.7,1.2-1.2,1.2-2.4,0.6c-1.5-0.7-2.5-2.3-3.7-3.5c-0.7-0.8-2,0-1.7,1.1c0.7,2.7,3.3,5.4,5.9,6
	c2.4,0.6,4.1-1.5,5.1-3.6C320.3,174.2,320.5,171.3,318.5,169z"/>
<path id="XMLID_9_" class="st2" d="M329,160.7c-2.3-1.8-5.1-3.1-7.5-4.8c-0.6-0.4-7-5.1-7.2-4.7c0.4-0.9-0.4-1.9-1.3-1.4
	c-0.1,0.1-0.2,0.1-0.3,0.2c-0.3,0.2-0.5,0.6-0.5,1c0.1,2.6,3.7,4.6,5.5,5.9c-0.4,0.2-0.8,0.4-1.2,0.7c-2.3,2-1.9,5.6-0.3,7.9
	c1.7,2.4,4.5,3.8,7.1,2c1.4-1,2.5-3,2.7-5c0.7,0.3,1.3,0.6,2,0.9C329.6,164,330.2,161.6,329,160.7z"/>
<path id="XMLID_118_" class="st2" d="M330.3,154.9c-0.7-1.4-2.3-2-3.5-2.7c-1.4-0.8-2.9-1.6-4.3-2.4c-1.4-0.7-2.5,1.3-1.2,2.3
	c1.4,1,2.7,1.9,4.1,2.8c1.2,0.8,2.5,2,3.9,1.9C330.2,156.7,330.7,155.8,330.3,154.9z"/>
<path id="XMLID_126_" class="st2" d="M319.5,147.1c0.3-0.8-0.6-1.5-1.2-1.3c-1,0.2-1.3,1.6-0.8,2.4c0.3,0.5,1,0.8,1.5,0.4
	c0.4-0.3,0.7-0.9,0.5-1.4C319.5,147.2,319.5,147.1,319.5,147.1z"/>
<path id="XMLID_120_" class="st2" d="M333.9,137.4c-0.8-0.3-1.7-0.4-2.6-0.2c-1.7-0.6-3.5-0.1-4.9,1.1c-0.4,0.2-0.7,0.4-1,0.7
	c-0.3,0.3-0.5,0.6-0.7,1c-1.2,1.7-0.5,3.9,0.5,5.5c2.1,3.2,6.9,6.1,9.9,2.3C337.5,144.6,337.9,138.9,333.9,137.4z"/>
<path id="XMLID_119_" class="st2" d="M338.8,129.2c-2.2,0-2.2,3.7,0,3.7C341,132.9,341,129.2,338.8,129.2z"/>
<path id="XMLID_57_" class="st2" d="M409.6,460.4c-0.2-0.7-0.7-1.4-1.1-2c-0.4-0.7-0.8-1.4-1.3-2.1c-0.2-0.3-0.6-0.1-0.6,0.2
	c-0.1,0-0.3,0-0.4,0.1c-1,0.3-1.7,1.6-1.3,2.6c0.2,0.6,0.8,0.8,1.4,0.8c0,0,0,0,0,0c0,0.1,0,0.1,0,0.2c-0.1,0.6-0.3,1.2-0.4,1.9
	c0,0.6,0.8,0.8,1.1,0.3c0.3-0.5,0.4-1.1,0.5-1.7c0.1-0.2,0.1-0.4,0.1-0.6c0.2,0.5,0.5,1,1,1.1c0.2,0,0.3,0,0.5-0.1
	C409.5,461,409.7,460.8,409.6,460.4z"/>
<path id="XMLID_47_" class="st2" d="M410.7,458.8c0,0,0-0.1,0-0.1c0,0,0,0,0,0c-0.2-0.3-0.4-0.6-0.6-0.9c0.4-0.4,0.7-1,0.7-1.4
	c0.1-0.7-0.4-1.2-1.1-1.4c-0.6-0.2-1.5-0.1-1.8,0.5c-0.2,0.3-0.1,0.7,0,0.9c0,0.1,0,0.3,0,0.4c0.5,0.8,1,1.6,1.5,2.4
	c0,0,0.1,0.1,0.1,0.1c0.3,0.6,0.6,1.3,1.2,1.4c0.2,0,0.4-0.1,0.5-0.3C411.6,459.9,411.1,459.3,410.7,458.8z"/>
<path id="XMLID_46_" class="st2" d="M412,458.3c-0.6,0-0.6,1,0,1C412.6,459.3,412.6,458.3,412,458.3z"/>
<path id="XMLID_16_" class="st2" d="M416.7,454c-0.6-0.5-1.8-0.6-2.1,0.3c0,0.1,0,0.2,0,0.2c-0.1,0.2-0.2,0.3-0.2,0.5
	c0-0.2,0-0.4-0.2-0.5c-0.4-0.4-0.9-0.1-1.2,0.2c-0.4,0.4-0.6,0.8-0.3,1.3c0.1,0.2,0.4,0.2,0.5,0c-0.1,0.3-0.2,0.6-0.2,0.9
	c0,0.6,0.2,1.2,0.8,1.4c0.5,0.2,1.2-0.1,1.5-0.5c0.3-0.3,0.3-0.9-0.2-1c-0.3,0-0.6,0.4-0.8,0.3c-0.3,0-0.1-0.9-0.1-1
	c0-0.2,0.2-0.5,0.2-0.8c0,0.4,0.1,0.7,0.4,1c0.7,0.8,1.7,0.4,2.2-0.3C417.4,455.5,417.3,454.6,416.7,454z M416,455.4
	c-0.1,0.2-0.4,0.5-0.6,0.2c-0.2-0.2-0.2-0.5-0.2-0.7c0.2-0.1,0.5-0.2,0.7-0.1C416.1,454.9,416.1,455.2,416,455.4z"/>
<path id="XMLID_14_" class="st2" d="M419.7,453.2c-0.3-0.1-0.5-0.1-0.7,0c-0.1-0.2-0.1-0.4-0.1-0.7c0.1-0.1,0.1-0.3,0-0.4
	c-0.1-0.1-0.1-0.2-0.3-0.3c-0.3-0.1-0.6,0-0.7,0.3c-0.2,0.7,0,1.5,0.3,2.2c0,0-0.1-0.1-0.1-0.1c-0.3-0.4-0.6-0.8-0.8-1.3
	c0-0.3-0.4-0.5-0.6-0.2c-0.3,0.5,0.2,1.2,0.4,1.6c0.3,0.6,0.6,1.3,1.2,1.6c0.3,0.1,0.5-0.2,0.5-0.4c0-0.3-0.1-0.6-0.3-0.9
	c0.4,0.4,1,0.7,1.5,0.2C420.4,454.4,420.3,453.5,419.7,453.2z"/>
</svg>
