<?xml version="1.0" encoding="utf-8"?>
<!-- Generator: Adobe Illustrator 19.0.0, SVG Export Plug-In . SVG Version: 6.00 Build 0)  -->
<svg version="1.1" id="Layer_1" xmlns="http://www.w3.org/2000/svg" xmlns:xlink="http://www.w3.org/1999/xlink" x="0px" y="0px"
	 viewBox="-237 379.2 120 83.4" style="enable-background:new -237 379.2 120 83.4;" xml:space="preserve">
<style type="text/css">
	.st0{fill:#717171;}
	.st1{fill:#C8C9CA;}
	.st2{fill:#888888;}
	.st3{fill:#9E9E9F;}
</style>
<g>
	<path class="st0" d="M-163.7,429.4h20.7c7,0,13.1-2.3,18.2-6.9c5.1-4.7,7.7-10.3,7.8-17.1c0.1-7.5-2.5-13.8-8-18.7
		c-5.5-5-12.3-7.5-20.6-7.5h-26.8v83.3h8.7L-163.7,429.4L-163.7,429.4z M-163.7,421.9V387h18.5c5.1,0,9.6,1.5,13.4,4.7
		c3.9,3,6,6.9,6.2,11.7c0.3,5.5-1.5,10-5.5,13.5c-3.7,3.4-8.2,5-13.5,5H-163.7z"/>
	<path id="XMLID_11_" class="st1" d="M-212.1,431.4l-2.4-0.2c-6.3-0.5-11.6-3.2-15.8-7.9s-6.5-10.4-6.6-16.9
		c-0.1-7.9,2.5-14.4,8-19.5c5.5-5.1,12.9-7.7,22.1-7.7h26.6v83.3h-8.5V387h-18.6c-6.3,0-11.4,1.7-15.1,5.3
		c-3.6,3.2-5.4,7.5-5.6,12.7c-0.3,5.8,1.7,10.4,6,14.2c4.2,3.8,10.1,5.6,17.3,5.6h8.1l-28.1,37.7h-10.4L-212.1,431.4z"/>
	<g>
		<polygon id="XMLID_10_" class="st2" points="-124.2,442.7 -133.1,442.7 -133.1,451.5 -141.9,451.5 -141.9,460.4 -124.2,460.4 		
			"/>
		<rect id="XMLID_9_" x="-141.9" y="442.7" class="st3" width="4.4" height="4.4"/>
		<rect id="XMLID_8_" x="-144.2" y="440.5" class="st1" width="2.2" height="2.2"/>
		<rect id="XMLID_7_" x="-145.6" y="451.6" class="st2" width="3" height="3"/>
		<rect id="XMLID_6_" x="-147.5" y="449.2" class="st1" width="1.8" height="1.8"/>
		<rect id="XMLID_5_" x="-148.4" y="448.2" class="st1" width="0.9" height="0.9"/>
		<g>
			<rect id="XMLID_4_" x="-133.1" y="439.1" class="st2" width="3" height="3"/>
			<rect id="XMLID_3_" x="-134.9" y="436.7" class="st2" width="1.8" height="1.8"/>
			<rect id="XMLID_2_" x="-135.8" y="435.8" class="st2" width="0.9" height="0.9"/>
		</g>
		<rect id="XMLID_1_" x="-131" y="453.8" class="st0" width="8.8" height="8.8"/>
	</g>
</g>
</svg>
